<?xml version="1.0" encoding="UTF-8" standalone="no"?>
<!DOCTYPE svg PUBLIC "-//W3C//DTD SVG 1.1//EN" "http://www.w3.org/Graphics/SVG/1.1/DTD/svg11.dtd">
<!-- Created with Vectornator (http://vectornator.io/) -->
<svg height="100%" stroke-miterlimit="10" style="fill-rule:nonzero;clip-rule:evenodd;stroke-linecap:round;stroke-linejoin:round;" version="1.1" viewBox="0 0 3840 2160" width="100%" xml:space="preserve" xmlns="http://www.w3.org/2000/svg" xmlns:vectornator="http://vectornator.io" xmlns:xlink="http://www.w3.org/1999/xlink">
<defs/>
<path d="M0 0L3840 0L3840 2160L0 2160L0 0Z" fill="#ffffff" fill-rule="nonzero" opacity="1" stroke="none" vectornator:artboardBackground="true" vectornator:layerName="Rectangle"/>
<clipPath id="ArtboardFrame">
<rect height="2160" width="3840" x="0" y="0"/>
</clipPath>
<g clip-path="url(#ArtboardFrame)" id="Layer-2" vectornator:layerName="Layer 2">
<path d="M298.699-215.699C295.351-215.699 292.004-215.699 288.656-215.699" fill="#000000" fill-rule="nonzero" opacity="0.28976" stroke="#000000" stroke-linecap="round" stroke-linejoin="round" stroke-width="300" vectornator:layerName="Curve 2"/>
<path d="M966.618-486.325L955.682-499.994" fill="#000000" fill-rule="nonzero" opacity="0.28976" stroke="#000000" stroke-linecap="round" stroke-linejoin="round" stroke-width="300" vectornator:layerName="Curve 4"/>
<path d="M918.774-453.518C910.526-455.167 909.735-454.15 916.04-456.252" fill="#000000" fill-rule="nonzero" opacity="0.28976" stroke="#000000" stroke-linecap="round" stroke-linejoin="round" stroke-width="300" vectornator:layerName="Curve 5"/>
</g>
<g clip-path="url(#ArtboardFrame)" id="Layer-1" vectornator:layerName="Layer 1">
<path d="M2916.62 579.433C3103.31 468.63 3396.01 373.122 3595.93 439.762C3842.13 521.829 3835.24 891.743 3583.66 967.215C3390.63 1025.12 3332.2 842.588 3380.39 685.965C3441.2 488.323 3684.84 330.064 3878.93 404.715" fill="none" opacity="1" stroke="#1a1a1a" stroke-linecap="round" stroke-linejoin="round" stroke-width="6.5" vectornator:layerName="Curve 1"/>
<path d="M1421.42 1071.43C981.632 1224.08 1076.48 2005.07 1489.2 1936.28C1885.44 1870.24 1853.21 1256.92 2243.86 1191.81C2620.81 1128.99 2346.02 1628.86 2166.81 1404.84C2094.99 1315.07 2114.28 1190.88 2177.86 1114.32M2180.71 1110.95C2239.05 1043.4 2332.64 1015.34 2427.43 1086.43C2468.03 1116.88 2498.82 1205.8 2498.82 1254.14C2498.82 1575.03 2116.18 1526.51 2000.24 1758.38C1862.3 2034.25 2002.15 2122.35 2223.29 2031.24" fill="none" opacity="1" stroke="#1a1a1a" stroke-linecap="round" stroke-linejoin="round" stroke-width="6.5" vectornator:layerName="Curve 2"/>
<path d="M1590.55 1006.8C1767.61 918.269 2281.42 775.364 2081.39 441.993C1935.1 198.167 1513.37 378.877 1693.09 618.496C1823.73 792.68 2093.29 457.231 1881.36 280.619C1689.53 120.766 1451.98 427.088 1543.48 610.091C1600.97 725.064 1794.81 641.779 1805.71 532.766C1819.34 396.51 1638.82 301.028 1521.63 359.625C1321.9 459.488 1290.65 848.064 1064.4 885.772C852.025 921.168 819.04 682.922 990.444 599.052" fill="none" opacity="1" stroke="#1a1a1a" stroke-linecap="round" stroke-linejoin="round" stroke-width="6.5" vectornator:layerName="Curve 3"/>
<path d="M561.513 1439.91C574.893 1432.95 590.095 1425.37 598.705 1421.93C646.081 1402.98 687.47 1397.88 738.502 1408.09C836.626 1427.71 957.423 1681.39 1023.63 1460.69C1051.11 1369.1 1068.94 1217.03 1034.71 1125.73C1021.15 1089.59 898.633 974.205 910.134 1066.21C937.549 1285.53 1380.21 925.761 1193.88 817.066C990.881 698.65 943.324 1065.85 1121.91 1009.46C1354.22 936.099 1428.52 596.418 1161.28 568.381" fill="none" opacity="1" stroke="#1a1a1a" stroke-linecap="round" stroke-linejoin="round" stroke-width="6.5" vectornator:layerName="Curve 4"/>
<path d="M1420.98 1058.32C1420.98 1005.63 1461.72 962.923 1511.96 962.923C1562.21 962.923 1602.94 1005.63 1602.94 1058.32C1602.94 1111.01 1562.21 1153.72 1511.96 1153.72C1461.72 1153.72 1420.98 1111.01 1420.98 1058.32Z" fill="none" opacity="0.99964" stroke="#1a1a1a" stroke-linecap="round" stroke-linejoin="round" stroke-width="6.5" vectornator:layerName="Oval 1"/>
<path d="M999.572 548.65C990.18 368.656 1286.11 414.753 1359.67 267.626" fill="none" opacity="1" stroke="#1a1a1a" stroke-linecap="round" stroke-linejoin="round" stroke-width="6.5" vectornator:layerName="Curve 5"/>
<path d="M2406.54 1995.06C2601.82 1916.82 2760.81 2191.97 2922.05 1998.48C3028.36 1870.91 3010.88 1648.05 2953.05 1503.48C2942.28 1476.56 2796.31 1251.92 2777.05 1367.48C2771.83 1398.82 2806.39 1413.48 2832.05 1413.48C2986.58 1413.48 3039.16 1136.57 2879.04 1127.7" fill="none" opacity="1" stroke="#1a1a1a" stroke-linecap="round" stroke-linejoin="round" stroke-width="6.5" vectornator:layerName="Curve 6"/>
<path d="M387.378 1458.75C386.323 1458.36 385.409 1458.09 384.663 1457.96C282.464 1440.93 274.634 1316.88 297.377 1241.07C315.224 1181.58 695.403 812.565 547.332 775.547C497.069 762.981 447.385 807.829 411.113 833.738C79.7088 1070.46 727.686 1454.43 801.255 1123.37C864.457 838.959 353.06 645.166 292.087 401.276C247.48 222.849 372.475 10.1569 585.685 81.2272C762.563 140.186 761.754 718.644 589.653 753.065C547.444 761.506 506.791 737.208 475.917 710.744C310.378 568.854 656.22 451.971 609.491 685.616C572.165 872.243 320.386 1070.12 173.061 1168.33C143.447 1188.08-74.2495 1284.92-74.2495 1307.2" fill="none" opacity="1" stroke="#1a1a1a" stroke-linecap="round" stroke-linejoin="round" stroke-width="6.5" vectornator:layerName="Curve 7"/>
<path d="M2745.52 677.71C2701.51 696.326 2653.48 709.979 2610.01 729.302C2463.18 794.558 2464.38 968.523 2621.04 1027.27C2752.53 1076.58 2958.14 793.591 3061.1 965.193C3129.37 1078.99 2956.07 1244.95 2876.25 1125.21C2745.56 929.18 3134.66 913.143 3034.11 1123.91" fill="none" opacity="1" stroke="#1a1a1a" stroke-linecap="round" stroke-linejoin="round" stroke-width="6.5" vectornator:layerName="Curve 8"/>
<path d="M2817.38 1106.24C2814.67 1100.65 2824.58 1074.21 2826.26 1070.91C2883.9 957.208 3047.62 1021.61 3020.69 1142.97C2994.36 1261.57 2825.36 1216.16 2817.39 1108.91M2817.31 1107.75C2817.26 1107.02 2817.22 1106.28 2817.19 1105.54M2817.18 1105.2C2817.11 1103.57 2817.09 1101.92 2817.1 1100.27" fill="none" opacity="1" stroke="#1a1a1a" stroke-linecap="round" stroke-linejoin="round" stroke-width="6.5" vectornator:layerName="Curve 9"/>
<path d="M1571.9 1040.35C1583.13 1076.72 1564.23 1114.05 1529.68 1123.71C1495.12 1133.37 1458.01 1111.71 1446.78 1075.33C1435.54 1038.96 1454.45 1001.63 1489 991.974C1523.56 982.313 1560.67 1003.97 1571.9 1040.35Z" fill="none" opacity="1" stroke="#1a1a1a" stroke-linecap="round" stroke-linejoin="round" stroke-width="6.5" vectornator:layerName="Oval 2"/>
<path d="M994.921 584.524C994.921 533.471 1032.25 492.085 1078.31 492.085C1124.36 492.085 1161.7 533.471 1161.7 584.524C1161.7 635.576 1124.36 676.962 1078.31 676.962C1032.25 676.962 994.921 635.576 994.921 584.524Z" fill="none" opacity="1" stroke="#1a1a1a" stroke-linecap="round" stroke-linejoin="round" stroke-width="6.5" vectornator:layerName="Oval 3"/>
<path d="M1020.37 563.908C1029.62 529.746 1062.7 510.177 1094.24 520.2C1125.79 530.222 1143.86 566.041 1134.6 600.202C1125.35 634.364 1092.27 653.933 1060.73 643.91C1029.18 633.888 1011.11 598.07 1020.37 563.908Z" fill="none" opacity="1" stroke="#1a1a1a" stroke-linecap="round" stroke-linejoin="round" stroke-width="6.5" vectornator:layerName="Oval 4"/>
<path d="M391.169 1481.76C391.169 1427.14 430.494 1382.86 479.004 1382.86C527.513 1382.86 566.838 1427.14 566.838 1481.76C566.838 1536.38 527.513 1580.66 479.004 1580.66C430.494 1580.66 391.169 1536.38 391.169 1481.76Z" fill="none" opacity="1" stroke="#1a1a1a" stroke-linecap="round" stroke-linejoin="round" stroke-width="6.5" vectornator:layerName="Oval 5"/>
<path d="M409.266 1480.59C409.266 1441.88 439.172 1410.51 476.063 1410.51C512.955 1410.51 542.861 1441.88 542.861 1480.59C542.861 1519.29 512.955 1550.66 476.063 1550.66C439.172 1550.66 409.266 1519.29 409.266 1480.59Z" fill="none" opacity="1" stroke="#1a1a1a" stroke-linecap="round" stroke-linejoin="round" stroke-width="6.5" vectornator:layerName="Oval 6"/>
<path d="M2210.96 1979.48C2210.96 1919.56 2254.53 1870.98 2308.28 1870.98C2362.03 1870.98 2405.61 1919.56 2405.61 1979.48C2405.61 2039.41 2362.03 2087.99 2308.28 2087.99C2254.53 2087.99 2210.96 2039.41 2210.96 1979.48Z" fill="none" opacity="1" stroke="#1a1a1a" stroke-linecap="round" stroke-linejoin="round" stroke-width="6.5" vectornator:layerName="Oval 7"/>
<path d="M2239.29 1978.74C2239.29 2021.78 2270.18 2056.68 2308.28 2056.68C2346.39 2056.68 2377.28 2021.78 2377.28 1978.74C2377.28 1935.69 2346.39 1900.8 2308.28 1900.8C2270.18 1900.8 2239.29 1935.69 2239.29 1978.74Z" fill="none" opacity="1" stroke="#1a1a1a" stroke-linecap="round" stroke-linejoin="round" stroke-width="6.5" vectornator:layerName="Oval 8"/>
<path d="M2738.4 635.585C2738.4 580.046 2780.3 535.022 2831.99 535.022C2883.68 535.022 2925.58 580.046 2925.58 635.585C2925.58 691.125 2883.68 736.148 2831.99 736.148C2780.3 736.148 2738.4 691.125 2738.4 635.585Z" fill="none" opacity="1" stroke="#1a1a1a" stroke-linecap="round" stroke-linejoin="round" stroke-width="6.5" vectornator:layerName="Oval 9"/>
<path d="M2770.94 637.104C2770.94 598.7 2798.97 567.567 2833.54 567.567C2868.11 567.567 2896.13 598.7 2896.13 637.104C2896.13 675.507 2868.11 706.64 2833.54 706.64C2798.97 706.64 2770.94 675.507 2770.94 637.104Z" fill="none" opacity="1" stroke="#1a1a1a" stroke-linecap="round" stroke-linejoin="round" stroke-width="6.5" vectornator:layerName="Oval 10"/>
</g>
</svg>
